<svg xmlns="http://www.w3.org/2000/svg" width="1000" height="680" viewBox="0 0 1000 680"><defs><linearGradient id="a" x1="0" y1="0" x2="1" y2="1"><stop stop-color="#eaf3ff"/><stop offset="1" stop-color="#ffffff"/></linearGradient></defs><rect width="1000" height="680" fill="url(#a)"/><rect x="70" y="80" width="860" height="520" rx="36" fill="#ffffff" stroke="#d8a24a" stroke-width="16"/><rect x="160" y="170" width="240" height="260" rx="28" fill="#eef4ff" stroke="#16365d" stroke-width="12"/><rect x="470" y="160" width="320" height="38" rx="19" fill="#17345c"/><rect x="470" y="225" width="250" height="26" rx="13" fill="#86addd"/><path d="M230 470c80-30 150 18 148 82H140c0-30 35-62 90-82z" fill="#d6a24a"/><path d="M600 360c0-70 48-128 110-128h40c62 0 110 58 110 128v190H600V360z" fill="#17345c"/><circle cx="730" cy="280" r="44" fill="#fff"/><text x="500" y="625" font-family="Arial" font-size="42" text-anchor="middle" fill="#8c6407">بعد التنفيذ</text></svg>