<svg xmlns="http://www.w3.org/2000/svg" width="1200" height="800" viewBox="0 0 1200 800"><defs><linearGradient id="a" x1="0" y1="0" x2="1" y2="1"><stop stop-color="#08111f"/><stop offset="1" stop-color="#183a66"/></linearGradient></defs><rect width="1200" height="800" fill="url(#a)"/><rect x="70" y="90" width="1060" height="620" rx="42" fill="#f7fafc"/><rect x="120" y="150" width="420" height="500" rx="30" fill="#dbe8ff"/><rect x="610" y="160" width="430" height="42" rx="21" fill="#12294a"/><rect x="610" y="230" width="360" height="26" rx="13" fill="#40638d" opacity=".8"/><rect x="610" y="290" width="420" height="150" rx="28" fill="#eef4ff"/><rect x="610" y="470" width="200" height="110" rx="24" fill="#102645"/><rect x="840" y="470" width="190" height="110" rx="24" fill="#d6a24a"/><circle cx="330" cy="395" r="120" fill="#1c3f6c" opacity=".85"/><path d="M260 470c0-63 42-103 70-124 18-14 43-14 61 0 28 21 70 61 70 124" fill="#d6a24a"/><rect x="280" y="270" width="100" height="150" rx="26" fill="#fffcf1"/><rect x="296" y="286" width="68" height="36" rx="10" fill="#8cb4e8"/><rect x="296" y="338" width="68" height="56" rx="16" fill="#d6a24a"/></svg>