<svg xmlns="http://www.w3.org/2000/svg" width="1200" height="800" viewBox="0 0 1200 800"><defs><linearGradient id="a" x1="0" y1="0" x2="1" y2="1"><stop stop-color="#0b172b"/><stop offset="1" stop-color="#0e3d70"/></linearGradient></defs><rect width="1200" height="800" fill="url(#a)"/><rect x="60" y="70" width="1080" height="660" rx="44" fill="#f7fafc"/><rect x="110" y="120" width="980" height="220" rx="30" fill="#e9f1ff"/><rect x="140" y="160" width="280" height="140" rx="24" fill="#16365d"/><rect x="460" y="160" width="580" height="30" rx="15" fill="#1f4d83"/><rect x="460" y="210" width="430" height="24" rx="12" fill="#7797bc"/><rect x="460" y="252" width="510" height="24" rx="12" fill="#b7c9e2"/><rect x="110" y="390" width="290" height="280" rx="28" fill="#0f213a"/><rect x="430" y="390" width="300" height="280" rx="28" fill="#d6a24a"/><rect x="760" y="390" width="330" height="280" rx="28" fill="#dbe8ff"/><circle cx="255" cy="530" r="76" fill="#fff" opacity=".9"/><path d="M223 498h64v64h-64z" fill="#d6a24a"/><path d="M900 450c70 0 110 56 110 124 0 31-12 57-26 96H818c-14-39-26-65-26-96 0-68 38-124 108-124z" fill="#173257"/><circle cx="900" cy="456" r="58" fill="#f6fbff"/></svg>