<svg xmlns="http://www.w3.org/2000/svg" width="1200" height="800" viewBox="0 0 1200 800"><defs><linearGradient id="a" x1="0" y1="0" x2="1" y2="1"><stop stop-color="#07111f"/><stop offset="1" stop-color="#1d3151"/></linearGradient></defs><rect width="1200" height="800" fill="url(#a)"/><rect x="70" y="90" width="1060" height="620" rx="44" fill="#f8fbff"/><rect x="120" y="140" width="500" height="520" rx="32" fill="#e5efff"/><rect x="650" y="140" width="430" height="180" rx="32" fill="#10213b"/><rect x="650" y="350" width="430" height="310" rx="32" fill="#eef4ff"/><path d="M220 560c0-80 54-142 140-166 18-5 39 0 53 14 18 18 40 47 54 88 6 18 8 40 3 58l-28 106H220V560z" fill="#d6a24a" opacity=".95"/><circle cx="360" cy="280" r="90" fill="#193a63"/><rect x="735" y="190" width="260" height="30" rx="15" fill="#d6a24a"/><rect x="735" y="240" width="210" height="22" rx="11" fill="#6d88a8"/><rect x="708" y="400" width="120" height="210" rx="22" fill="#16365d"/><rect x="846" y="400" width="190" height="88" rx="22" fill="#d6a24a"/><rect x="846" y="520" width="190" height="88" rx="22" fill="#9fc0ec"/></svg>